<svg width="23.999999999999996" height="23.999999999999996" xmlns="http://www.w3.org/2000/svg" fill-rule="evenodd" fill="currentColor">
 <title>Mistral</title>

 <g>
  <title>Layer 1</title>
  <path fill="#e44b79" stroke="#e44b79" id="svg_1" d="m3.428,3.4l3.429,0l0,3.428l3.429,0l0,3.429l-0.002,0l3.431,0l0,-3.429l3.427,0l0,-3.428l3.43,0l0,13.714l3.428,0l0,3.429l-10.286,0l0,-3.428l-3.428,0l0,-3.429l-3.43,0l0,3.428l3.43,0l0,3.429l-10.286,0l0,-3.429l3.428,0l0,-13.714zm10.286,13.715l3.428,0l0,-3.429l-3.427,0l0,3.429l-0.001,0z" clip-rule="evenodd"/>
 </g>
</svg>