<svg width="99.99999999999999" height="99.99999999999999" xmlns="http://www.w3.org/2000/svg" fill-rule="evenodd" fill="currentColor">
 <title>Mistral</title>

 <g>
  <title>Layer 1</title>
  <path fill="#aa69c4" stroke="#aa69c4" id="svg_1" d="m14.53961,15.20053l14.14461,0l0,13.99613l14.14461,0l0,14.00022l-0.00825,0l14.15286,0l0,-14.00022l14.13636,0l0,-13.99613l14.14873,0l0,55.9927l14.14048,0l0,14.00022l-42.4297,0l0,-13.99613l-14.14048,0l0,-14.00022l-14.14873,0l0,13.99613l14.14873,0l0,14.00022l-42.4297,0l0,-14.00022l14.14048,0l0,-55.9927zm42.4297,55.99679l14.14048,0l0,-14.00022l-14.13636,0l0,14.00022l-0.00412,0z" clip-rule="evenodd"/>
 </g>
</svg>